<svg width="238" height="281" viewBox="0 0 238 281" fill="none" xmlns="http://www.w3.org/2000/svg">
<circle cx="126" cy="103" r="103" fill="white"/>
<ellipse cx="59.5" cy="201" rx="59.5" ry="67" fill="white"/>
<circle cx="187" cy="217" r="51" fill="white"/>
<ellipse cx="121.5" cy="228.5" rx="112.5" ry="52.5" fill="white"/>
<path d="M79.0379 112C74.9819 113.928 67.2099 113.932 65.4509 118.064C63.4489 122.768 63.1119 123.751 64.3049 128.722C69.4499 150.155 73.8309 170.473 79.0379 191.891C81.3999 201.608 76.8769 237.008 77.8809 246.958C101.393 248.211 164.386 248.267 164.321 247.278C162.821 224.528 164.685 177.256 167.547 162.487C170.861 145.381 158.52 109.577 157 109.04C145.845 105.101 149.54 100.207 137.729 99.535C126.142 98.876 111.516 97.582 99.9079 98.109C90.1179 98.555 87.8499 106.965 79.0379 112Z" fill="#FAFAFA"/>
<path d="M103.583 246.182C106.983 246.85 110.396 247.041 113.855 247.063C116.751 247.082 119.859 247.482 122.73 247.108C124.726 246.848 126.717 246.322 128.64 245.738C130.128 245.286 132.011 244.824 133.176 243.725C133.645 243.283 132.937 242.576 132.469 243.018C131.249 244.169 129.092 244.578 127.532 245.019C125.757 245.521 123.861 246.07 122.012 246.192C119.483 246.358 116.831 246.079 114.29 246.066C110.773 246.047 107.311 245.898 103.85 245.218C103.22 245.094 102.951 246.058 103.583 246.182Z" fill="#E8E5E2"/>
<path d="M108.644 189.06C110.657 190.095 112.401 191.688 114.26 192.975C116.259 194.358 118.308 195.669 120.402 196.903C122.23 197.981 124.14 199.234 126.118 200.016C127.102 200.405 127.877 200.548 128.625 199.744C129.063 199.273 128.357 198.564 127.918 199.037C126.682 200.366 119.089 194.955 117.8 194.132C114.894 192.275 112.204 189.768 109.148 188.197C108.577 187.903 108.071 188.765 108.644 189.06Z" fill="#E8E5E2"/>
<path d="M108.665 205.702C113.818 212.121 121.086 216.404 129.197 217.805C129.826 217.914 130.097 216.95 129.463 216.841C121.496 215.464 114.434 211.299 109.372 204.995C108.969 204.493 108.266 205.205 108.665 205.702Z" fill="#E8E5E2"/>
<path d="M106.426 110.1C113.774 114.468 122.825 114.755 130.448 110.899C131.022 110.608 130.517 109.745 129.943 110.036C122.638 113.732 113.964 113.418 106.93 109.237C106.376 108.907 105.873 109.771 106.426 110.1Z" fill="#E8E5E2"/>
<path d="M116.191 119.51C118.965 119.977 121.739 120.444 124.513 120.911C125.142 121.017 125.413 120.054 124.779 119.947C122.005 119.48 119.231 119.013 116.457 118.546C115.827 118.439 115.557 119.403 116.191 119.51Z" fill="#E8E5E2"/>
<path d="M101.843 95.8708C101.814 96.6888 100.088 97.3117 99.9089 98.1097C105.137 101.244 106.261 107.319 118.834 107.325C134.847 107.333 138.585 100.683 137.731 99.5358C137.293 98.9478 136.634 98.5587 136.176 97.9857C135.363 96.9697 136.414 80.6848 135.701 76.2368C135.641 75.8608 112.164 79.9138 102.315 77.6048C102.86 82.6458 103.465 96.0628 101.843 95.8708Z" fill="#F29E91"/>
<path d="M100.637 76.0219C101.834 79.7999 103.159 83.7439 106.052 86.4519C110.264 90.3939 116.701 96.328 122.469 96.419C126.329 96.48 130.485 90.7839 133.388 88.2399C136.419 85.5849 136.96 81.149 137.298 77.135C137.658 72.866 139.025 70.1159 139.384 65.8469C139.949 59.1399 140.902 44.533 130.158 38.393C124.045 34.899 114.312 36.8449 107.654 39.1359C90.504 45.0359 96.951 64.3889 100.637 76.0219Z" fill="#FFAF9D"/>
<path d="M102.759 47.7049C114.562 49.9669 123.217 49.9869 134.846 46.9549C137.298 56.1879 137.478 63.9649 138.281 68.9539C140.091 65.0699 140.915 65.4679 141.655 63.9199C142.395 62.3709 141.793 48.2639 141.155 45.4029C144.042 43.4329 143.302 39.3809 142.315 36.0289C141.112 31.9419 136.873 29.3439 132.651 28.7739C128.428 28.2039 124.175 29.2639 120.046 30.3159C116.036 31.3369 112.026 32.3579 108.017 33.3789C104.699 34.2239 101.331 35.0749 97.907 35.0059C94.483 34.9369 90.937 33.8319 88.623 31.3079C88.732 37.1129 91.338 42.4409 96.33 45.4029C94.297 52.8259 94.031 65.1599 97.564 66.7079C104.275 69.6489 101.915 47.5429 102.759 47.7049Z" fill="#312553"/>
<path d="M102.096 69.3161L102.064 67.193C101.639 64.877 100.699 62.5971 99.0971 61.3011C97.4941 60.0061 95.1551 59.9741 93.8041 61.6561C92.7851 62.9261 92.5031 64.8921 92.7271 66.6631C92.9511 68.4351 93.6131 70.068 94.2661 71.667C94.9191 73.267 95.6001 74.9121 96.7061 76.0651C97.8121 77.2181 99.4631 77.7591 100.722 76.8811C102.667 75.5241 102.513 72.0391 102.096 69.3161Z" fill="#FFAF9D"/>
<path d="M143.333 61.9809C142.975 61.2199 142.509 60.4949 141.862 60.0609C140.267 58.9919 138.557 60.5389 137.123 61.9229C134.067 64.8719 135.29 77.1439 137.299 77.1339C140.244 77.3279 141.484 74.6539 143.061 71.7629C144.637 68.8709 144.745 64.9839 143.333 61.9809Z" fill="#FFAF9D"/>
<path d="M120.612 62.5407C120.734 65.4367 121.212 68.2797 122.167 71.0237C122.554 72.1357 123.013 73.2298 123.537 74.2847C124.104 75.4267 125.081 76.3727 123.728 77.7277C123.023 78.4347 121.368 78.6348 120.488 78.6958C119.85 78.7398 119.845 79.7408 120.488 79.6958C122.46 79.5588 126.148 78.6148 125.69 76.1348C125.557 75.4168 124.731 74.4497 124.4 73.7797C123.789 72.5447 123.276 71.2628 122.862 69.9488C122.102 67.5368 121.718 65.0647 121.612 62.5407C121.585 61.8987 120.585 61.8957 120.612 62.5407Z" fill="#D37A71"/>
<path d="M114.703 83.1498C117.723 84.2158 120.793 84.5028 123.963 84.0748C124.598 83.9888 124.328 83.0258 123.697 83.1108C120.717 83.5138 117.802 83.1858 114.968 82.1858C114.361 81.9708 114.099 82.9368 114.703 83.1498Z" fill="#D37A71"/>
<path d="M117.526 86.5027C118.526 86.6677 119.527 86.8337 120.527 86.9987C121.157 87.1027 121.427 86.1397 120.793 86.0347C119.793 85.8697 118.793 85.7037 117.792 85.5387C117.162 85.4337 116.891 86.3977 117.526 86.5027Z" fill="#D37A71"/>
<path d="M98.7012 63.988C91.2312 60.248 96.3092 76.4669 99.1582 75.3599C99.7512 75.1299 99.4932 74.1619 98.8922 74.3959C97.7472 74.8409 93.2212 62.3609 98.1962 64.8519C98.7702 65.1389 99.2772 64.277 98.7012 63.988Z" fill="#D37A71"/>
<path d="M138.902 63.9648C140.126 64.2338 140.705 64.8298 140.64 65.7528C140.665 66.1658 140.668 66.5798 140.647 66.9938C140.612 67.9148 140.479 68.8298 140.272 69.7268C139.889 71.3838 139.314 73.4558 137.743 74.3378C137.182 74.6528 137.685 75.5168 138.248 75.2008C141.299 73.4888 141.981 68.1638 141.59 65.0448C141.383 63.3948 139.131 60.9828 138.038 63.4588C137.781 64.0428 138.642 64.5528 138.902 63.9648Z" fill="#D37A71"/>
<path d="M112.155 68.362C112.804 68.362 113.331 67.5069 113.331 66.452C113.331 65.3971 112.804 64.542 112.155 64.542C111.506 64.542 110.979 65.3971 110.979 66.452C110.979 67.5069 111.506 68.362 112.155 68.362Z" fill="#312553"/>
<path d="M130.051 65.8109C130.051 66.8659 129.525 67.7209 128.875 67.7209C128.226 67.7209 127.699 66.8659 127.699 65.8109C127.699 64.7559 128.225 63.9009 128.875 63.9009C129.524 63.9009 130.051 64.7559 130.051 65.8109Z" fill="#312553"/>
<path d="M107.918 60.0608C110.244 59.3938 112.31 59.2538 114.703 59.6398C115.333 59.7418 115.603 58.7778 114.969 58.6758C112.404 58.2618 110.151 58.3798 107.652 59.0968C107.034 59.2738 107.297 60.2388 107.918 60.0608Z" fill="#312553"/>
<path d="M125.825 59.5737C127.878 59.4227 129.93 59.2717 131.983 59.1217C132.621 59.0747 132.626 58.0747 131.983 58.1217C129.93 58.2727 127.878 58.4237 125.825 58.5737C125.187 58.6207 125.182 59.6217 125.825 59.5737Z" fill="#312553"/>
<path d="M95.7031 38.308C99.9341 41.646 104.668 44.058 109.864 45.489C110.485 45.66 110.75 44.6959 110.13 44.5249C105.109 43.1419 100.499 40.827 96.4101 37.601C95.9101 37.207 95.1981 37.91 95.7031 38.308Z" fill="#3F3468"/>
<path d="M106.309 37.7189C109.497 41.3379 113.333 44.166 117.737 46.135C118.32 46.395 118.829 45.5339 118.242 45.2709C113.915 43.3359 110.15 40.5689 107.016 37.0109C106.59 36.5279 105.885 37.2379 106.309 37.7189Z" fill="#3F3468"/>
<path d="M114.394 37.8161C117.283 39.9271 120.172 42.0381 123.061 44.1491C123.581 44.5291 124.081 43.6621 123.566 43.2861C120.677 41.1751 117.788 39.0641 114.899 36.9531C114.378 36.5731 113.879 37.4401 114.394 37.8161Z" fill="#3F3468"/>
<path d="M122.249 34.6081C124.054 37.2571 126.339 39.4591 129.058 41.1571C129.605 41.4991 130.108 40.6341 129.563 40.2941C126.991 38.6871 124.821 36.6101 123.113 34.1031C122.752 33.5741 121.885 34.0741 122.249 34.6081Z" fill="#3F3468"/>
<path d="M128.613 33.082C130.438 34.815 131.994 36.7609 133.278 38.9249C133.606 39.4779 134.471 38.976 134.141 38.42C132.815 36.185 131.204 34.163 129.319 32.374C128.854 31.932 128.145 32.638 128.613 33.082Z" fill="#3F3468"/>
<path d="M102.759 147.823C104.161 148.045 105.627 148.233 106.977 147.792C108.327 147.351 109.516 146.094 109.405 144.678C109.328 143.7 108.67 142.857 108.495 141.891C108.218 140.362 109.176 138.912 109.532 137.4C109.769 136.394 110.256 132.777 108.8 132.511C107.418 132.257 106.571 134.915 106.138 135.777C105.308 137.43 104.112 138.452 103.743 140.325C103.26 142.78 103.085 145.341 102.759 147.823Z" fill="#FFAF9D"/>
<path d="M134.846 249.86C144.954 248.952 158.168 249.873 168.191 248.278C170.083 208.841 167.321 166.038 164.534 124.439C164.348 121.67 169.033 113.096 167.208 111.034C165.792 109.434 135.5 95.8538 136.174 97.9858C137.732 102.913 139.228 119.502 138.918 124.457C137.693 144.016 138.438 153.257 137.625 172.838C136.7 195.178 135.773 227.519 134.846 249.86Z" fill="#F21649"/>
<path d="M139.832 102.294C142.124 108.373 144.986 114.239 147.06 120.399C148.055 123.355 148.835 126.379 149.302 129.465C149.582 131.316 150.084 132.814 148.738 134.159C147.71 135.187 146.313 136.638 144.978 137.155C144.613 137.296 144.501 137.687 144.757 137.991C145.85 139.29 147.355 140.196 148.321 141.609C150.137 144.264 149 147.323 148.007 150.067C147.788 150.673 148.754 150.934 148.971 150.333C149.896 147.778 150.981 144.855 149.829 142.18C148.93 140.093 146.875 138.961 145.464 137.284C145.39 137.563 145.317 137.841 145.243 138.12C147.308 137.321 148.625 135.303 150.499 134.173C150.642 134.086 150.759 133.915 150.747 133.741C149.957 122.348 144.755 112.526 140.796 102.029C140.571 101.432 139.604 101.69 139.832 102.294Z" fill="#9E1C3A"/>
<path d="M145.599 205.532C148.485 200.791 151.846 196.411 155.68 192.397C156.125 191.932 155.418 191.223 154.973 191.69C151.08 195.765 147.666 200.213 144.735 205.027C144.4 205.578 145.265 206.081 145.599 205.532Z" fill="#BF2F50"/>
<path d="M145.58 222.184C148.981 216.791 153.632 212.5 159.269 209.524C159.838 209.223 159.334 208.36 158.764 208.661C152.982 211.713 148.203 216.151 144.716 221.68C144.372 222.225 145.237 222.728 145.58 222.184Z" fill="#BF2F50"/>
<path d="M198.126 195.896C198.109 199.161 196.183 199.73 191.092 203.892C183.448 210.142 177.308 196.422 174.061 189.705C171.983 185.406 152.656 153.945 155.156 130.223C155.898 123.187 158.332 107.232 167.21 111.033C173.885 113.891 178.16 123.138 180.323 128.201C191.322 153.945 198.236 175.404 198.126 195.896Z" fill="#BF2F50"/>
<path d="M134.067 138.46C131.558 137.868 130.28 134.2 127.724 133.864C126.884 133.753 126.022 133.658 125.199 133.856C122.726 134.451 121.571 137.336 119.403 138.667C118.188 139.413 116.704 139.634 115.5 140.4C114.297 141.165 113.465 142.912 114.383 144.003C115.208 144.984 116.783 144.719 117.951 144.191C119.119 143.662 120.36 142.937 121.597 143.274C121.444 145.303 121.291 147.332 121.138 149.362C121.039 150.675 120.992 152.15 121.874 153.128C122.275 153.572 122.822 153.852 123.351 154.132C130.613 157.971 134.825 163.555 140.905 169.079C144.666 165.355 150.38 161.631 154.14 157.907C153.01 159.026 144.478 150.272 143.655 149.207C141.153 145.97 134.984 138.677 134.067 138.46Z" fill="#FFAF9D"/>
<path d="M168.192 200.021C171.092 203.734 189.592 217.324 197.092 200.021C202.146 188.361 188.155 177.509 182.031 173.829C177.464 171.085 159.379 157.331 147.822 151.409C146.386 150.673 133.87 165.325 138.919 169.467C154.141 181.955 159.909 189.418 168.192 200.021Z" fill="#BF2F50"/>
<path d="M158.663 115.224C154.145 120.84 154.059 128.974 154.022 135.846C153.998 140.363 154.325 144.95 155.722 149.274C157.181 153.793 159.873 157.712 162.572 161.567C162.938 162.09 163.806 161.591 163.435 161.062C160.962 157.53 158.445 153.944 156.974 149.855C155.465 145.661 155.04 141.174 155.019 136.744C154.988 129.936 154.879 121.515 159.37 115.931C159.769 115.434 159.066 114.722 158.663 115.224Z" fill="#9E1C3A"/>
<path d="M162.59 161.635C171.529 166.278 181.594 171.835 183.796 182.575C183.925 183.205 184.889 182.938 184.76 182.309C182.505 171.315 172.26 165.532 163.094 160.771C162.525 160.476 162.018 161.338 162.59 161.635Z" fill="#9E1C3A"/>
<path d="M178.835 171.655C181.929 172.217 184.459 174.153 185.807 176.995C186.083 177.576 186.945 177.069 186.67 176.49C185.224 173.441 182.421 171.293 179.1 170.69C178.471 170.576 178.202 171.54 178.835 171.655Z" fill="#9E1C3A"/>
<path d="M103.678 121.628C105.113 159.699 104.24 207.857 101.065 245.823C101.014 246.437 100.945 247.093 100.551 247.566C99.967 248.267 98.92 248.299 98.008 248.273C89.802 248.043 81.595 247.814 73.3889 247.584C72.5409 247.56 71.5989 247.497 71.0149 246.881C70.4309 246.266 70.417 245.321 70.438 244.473C71.316 208.768 72.1949 163.063 73.0729 127.359C73.1219 125.388 73.1599 123.355 72.4349 121.521C71.0999 118.141 65.595 116.846 65.482 113.213C65.452 112.244 101.842 95.8701 101.842 95.8701C99.909 102.481 103.409 114.496 103.678 121.628Z" fill="#F21649"/>
<path d="M98.0569 99.6201C93.2209 110.232 92.2279 122.354 89.8939 133.664C89.8479 133.888 89.9259 134.106 90.1239 134.229C91.2259 134.914 92.3279 135.6 93.4119 136.313C93.8389 136.594 94.7719 136.997 95.0479 137.439C95.4719 138.118 95.4699 137.579 95.0559 138.423C94.3929 139.776 92.8609 141.106 91.8279 142.163C91.3959 142.605 90.9199 142.917 90.7829 143.524C90.4569 144.969 91.6379 147.306 92.1039 148.634C92.7119 150.365 93.3469 152.378 94.6109 153.753C95.0479 154.228 95.7529 153.519 95.3179 153.046C93.8389 151.438 93.1839 148.846 92.5529 146.81C92.3119 146.034 91.8569 145.05 91.8639 144.224C91.8729 143.161 92.6969 142.722 93.4589 141.895C94.1919 141.101 96.6799 138.919 96.4589 137.581C96.2789 136.488 93.9049 135.44 93.1399 134.948C92.6579 134.637 92.0669 134.372 91.6359 133.995C90.8389 133.296 91.1129 133.71 91.1269 132.605C91.1449 131.253 91.6899 129.697 91.9369 128.362C92.5289 125.158 93.0969 121.95 93.7199 118.753C94.9469 112.459 96.2449 105.993 98.9189 100.126C99.1849 99.5431 98.3239 99.0341 98.0569 99.6201Z" fill="#9E1C3A"/>
<path d="M78.9408 207.258C82.9718 213.267 87.9428 218.468 93.7578 222.774C94.2758 223.157 94.7748 222.29 94.2628 221.911C88.5888 217.709 83.7368 212.617 79.8048 206.753C79.4478 206.221 78.5808 206.721 78.9408 207.258Z" fill="#BF2F50"/>
<path d="M78.2668 220.761C82.4638 224.82 87.1818 228.188 92.3878 230.833C92.9608 231.124 93.4668 230.261 92.8928 229.97C87.7628 227.364 83.1118 224.055 78.9738 220.054C78.5118 219.606 77.8038 220.312 78.2668 220.761Z" fill="#BF2F50"/>
<path d="M133.217 126.557H111.723C110.345 126.557 109.228 127.674 109.228 129.052V171.347C109.228 172.725 110.345 173.842 111.723 173.842H133.217C134.595 173.842 135.712 172.725 135.712 171.347V129.052C135.712 127.674 134.595 126.557 133.217 126.557Z" fill="#312553"/>
<path d="M130.076 131.535H127.673C126.773 131.535 126.044 132.265 126.044 133.165C126.044 134.065 126.773 134.794 127.673 134.794H130.076C130.976 134.794 131.706 134.065 131.706 133.165C131.706 132.265 130.976 131.535 130.076 131.535Z" fill="#FAFAFA"/>
<path d="M106.989 142.539C108.489 141.539 110.637 147.001 113.322 146.872C115.147 146.785 119.678 147.469 122.47 147.039C126.995 146.342 131.706 143.872 131.706 147.706C128.875 149.039 126.379 150.539 123.739 150.956C118.524 151.78 117.167 151.934 115.904 152.116C116.661 152.362 119.375 153.025 123.656 152.872C127.152 152.747 130.156 149.789 131.323 152.539C131.742 153.527 128.103 155.431 124.823 156.122C120.96 156.936 117.99 157.327 115.904 157.372C116.523 157.336 119.823 157.789 124.493 157.487C127.696 157.28 130.406 155.789 130.513 159.106C129.823 161.196 115.904 160.542 115.904 162.205C116.472 162.378 117.309 163.302 119.683 163.971C121.811 164.571 126.989 162.26 126.044 165.538C125.724 166.65 115.138 166.418 113.992 166.58C111.32 166.956 111.163 167.369 108.501 166.927C107.66 166.788 106.795 166.608 105.966 166.808C105.14 167.007 104.451 167.561 103.793 168.098C99.954 171.235 96.115 174.371 92.276 177.508C90.614 174.589 88.952 171.671 87.289 168.752C87.052 168.335 86.808 167.899 86.783 167.42C86.74 166.597 87.338 165.895 87.903 165.296C90.649 162.381 88.342 162.047 90.987 159.106C93.394 156.431 103.9 144.598 106.989 142.539Z" fill="#FFAF9D"/>
<path d="M50.842 207.005C57.45 212.92 69.672 207.211 76.994 202.205C93.156 191.156 102.46 170.352 101.851 169.077C100.325 165.883 100.262 156.882 94.918 153.866C93.656 153.154 76.278 166.157 72.006 170.785C72.608 170.599 78.107 158.293 79.906 153.184C83.173 143.91 84.466 129.531 81.156 119.705C77.59 109.12 70.244 109.939 65.484 113.213C51.411 122.893 35.76 193.505 50.842 207.005Z" fill="#BF2F50"/>
<path d="M78.637 116.566C82.971 124.573 82.661 133.737 80.55 142.352C78.371 151.246 75.202 159.875 72.691 168.677C72.514 169.297 73.479 169.562 73.655 168.943C76.357 159.469 79.937 150.172 81.997 140.526C83.757 132.283 83.586 123.609 79.5 116.062C79.194 115.495 78.33 115.999 78.637 116.566Z" fill="#9E1C3A"/>
<path d="M77.5099 166.125C69.3419 170.961 63.3909 178.761 60.8879 187.918C60.7179 188.54 61.6829 188.805 61.8519 188.184C64.2879 179.271 70.0629 171.696 78.0139 166.988C78.5679 166.661 78.0649 165.796 77.5099 166.125Z" fill="#9E1C3A"/>
<path d="M67.972 171.06C63.405 173.231 59.731 176.727 57.323 181.171C57.016 181.737 57.88 182.242 58.187 181.676C60.521 177.367 64.053 174.027 68.478 171.923C69.058 171.647 68.551 170.785 67.972 171.06Z" fill="#9E1C3A"/>
</svg>
