<svg width="50" height="50" viewBox="0 0 50 50" fill="none" xmlns="http://www.w3.org/2000/svg">
<path d="M36.5739 34.1593V37.3069C36.5739 42.6515 32.0542 47 26.49 47L12.0839 46.9975C6.52252 46.9975 2 42.6513 2 37.3043V11.6931C2 6.34846 6.5197 2 12.0839 2H26.4848C32.0462 2 36.5687 6.34618 36.5687 11.6931V14.4758C36.5687 15.7277 35.5399 16.7464 34.2756 16.7464C33.0113 16.7464 31.9824 15.7277 31.9824 14.4758V11.6931C31.9824 8.85229 29.5178 6.54107 26.4851 6.54107H12.0842C9.05139 6.54107 6.5868 8.84976 6.5868 11.6931V37.3063C6.5868 40.1471 9.05139 42.4583 12.0842 42.4583H26.4851C29.5178 42.4583 31.9824 40.1497 31.9824 37.3063V34.1587C31.9824 32.9068 33.0113 31.8881 34.2756 31.8881C35.5399 31.8881 36.5687 32.9068 36.5687 34.1587L36.5739 34.1593ZM48.3594 22.9299L42.3655 16.7464C41.4877 15.8392 40.034 15.8113 39.1229 16.6805C38.2118 17.5497 38.1785 18.9842 39.0563 19.8914L41.3238 22.228H25.8347C24.5704 22.228 23.5415 23.2467 23.5415 24.4986C23.5415 25.7505 24.5704 26.7693 25.8347 26.7693H41.0598L39.107 28.6497C38.2036 29.5265 38.1831 30.9584 39.0686 31.8605C39.514 32.3141 40.1102 32.5473 40.7066 32.5473C41.3029 32.5473 41.8659 32.3344 42.3113 31.8985L48.3051 26.1256C49.2086 25.2564 49.2367 23.822 48.3563 22.9274L48.3594 22.9299Z" fill="#171F46"/>
</svg>
