<svg width="50" height="50" viewBox="0 0 50 50" fill="none" xmlns="http://www.w3.org/2000/svg">
<path d="M40.2143 9H9.78571C8.80357 9 8 9.8117 8 10.8038V44.5886C8 47.5829 10.4107 50 13.3571 50H36.6429C39.5893 50 42 47.5829 42 44.5886V10.8038C42 9.8117 41.1964 9 40.2143 9ZM19.6429 38.3295C19.6429 39.3216 18.8393 40.1333 17.8571 40.1333C16.875 40.1333 16.0714 39.3216 16.0714 38.3295V20.7967C16.0714 19.8047 16.875 18.993 17.8571 18.993C18.8393 18.993 19.6429 19.8047 19.6429 20.7967V38.3295ZM26.7857 38.3295C26.7857 39.3216 25.9821 40.1333 25 40.1333C24.0179 40.1333 23.2143 39.3216 23.2143 38.3295V20.7967C23.2143 19.8047 24.0179 18.993 25 18.993C25.9821 18.993 26.7857 19.8047 26.7857 20.7967V38.3295ZM33.9286 38.3295C33.9286 39.3216 33.125 40.1333 32.1429 40.1333C31.1607 40.1333 30.3571 39.3216 30.3571 38.3295V20.7967C30.3571 19.8047 31.1607 18.993 32.1429 18.993C33.125 18.993 33.9286 19.8047 33.9286 20.7967V38.3295Z" fill="#171F46"/>
<path d="M43.3938 3.89648L29.1498 2.37431C29.2324 1.54546 28.544 0.800741 27.5637 0.694797L23.3377 0.242979C22.3574 0.133919 21.4725 0.715051 21.3091 1.53611L7.06517 0.0139536C6.06466 -0.101338 5.13942 0.510954 5.01459 1.36473C4.88792 2.21852 5.60021 2.99751 6.60622 3.10501L42.9348 6.98754C43.0119 6.99533 43.089 7 43.1661 7C44.0785 7 44.8679 6.42354 44.9854 5.63676C45.1121 4.78297 44.3998 4.00398 43.3938 3.89648Z" fill="#171F46"/>
</svg>
