<svg width="17" height="17" viewBox="0 0 17 17" fill="none" xmlns="http://www.w3.org/2000/svg">
<path d="M7.33342 13.9998C8.87175 13.9998 10.2859 13.4707 11.4142 12.5932L15.0776 16.2565L16.2559 15.0782L12.5926 11.4148C13.4709 10.2857 14.0001 8.8715 14.0001 7.33317C14.0001 3.65734 11.0092 0.666504 7.33342 0.666504C3.65758 0.666504 0.666748 3.65734 0.666748 7.33317C0.666748 11.009 3.65758 13.9998 7.33342 13.9998ZM7.33342 2.33317C10.0909 2.33317 12.3334 4.57567 12.3334 7.33317C12.3334 10.0907 10.0909 12.3332 7.33342 12.3332C4.57591 12.3332 2.33341 10.0907 2.33341 7.33317C2.33341 4.57567 4.57591 2.33317 7.33342 2.33317Z" fill="#757784"/>
</svg>
