<svg width="51" height="51" viewBox="0 0 51 51" fill="none" xmlns="http://www.w3.org/2000/svg">
<path d="M36.7917 26.7916H49.925C49.7063 27.6104 49.2687 28.3541 48.6583 28.9416L37.2749 40.3251C36.6873 40.9355 35.9436 41.373 35.1249 41.5917V28.4584C35.127 27.5396 35.8729 26.7937 36.7917 26.7916ZM45.125 0.125H13.4583C10.7 0.133333 8.46665 2.36665 8.45833 5.12499V36.7916C8.46667 39.55 10.7 41.7833 13.4583 41.7916H31.7917V28.4583C31.8 25.7 34.0333 23.4666 36.7917 23.4583H50.125V5.12499C50.1167 2.36665 47.8833 0.13332 45.125 0.125ZM33.4583 46.7916H11.7917C9.58335 46.7895 7.46457 45.9104 5.90207 44.3479C4.33956 42.7854 3.46041 40.6667 3.45833 38.4583V10.125C3.45833 9.20414 2.71252 8.45832 1.79167 8.45832C0.870813 8.45832 0.125 9.20414 0.125 10.125V38.4583C0.129166 41.552 1.35833 44.5164 3.54585 46.7041C5.73337 48.8917 8.69796 50.1208 11.7917 50.125H33.4584C34.3792 50.125 35.1251 49.3792 35.1251 48.4583C35.1251 47.5375 34.3792 46.7916 33.4583 46.7916Z" fill="#171F46"/>
</svg>
