<svg width="50" height="50" viewBox="0 0 50 50" fill="none" xmlns="http://www.w3.org/2000/svg">
<path d="M11.4583 22.9165H3.125V37.4998H11.4583V22.9165Z" fill="#171F46"/>
<path d="M46.875 22.9165H38.5416V37.4998H46.875V22.9165Z" fill="#171F46"/>
<path d="M12.5 18.75H2.08337V19.7917C2.08337 20.3646 2.55212 20.8333 3.12504 20.8333H11.4584C12.0313 20.8333 12.5 20.3646 12.5 19.7917V18.75Z" fill="#171F46"/>
<path d="M2.08337 40.6252V41.6668H12.5V40.6252C12.5 40.0522 12.0313 39.5835 11.4584 39.5835H3.12504C2.55212 39.5835 2.08337 40.0522 2.08337 40.6252Z" fill="#171F46"/>
<path d="M47.9167 18.75H37.5V19.7917C37.5 20.3646 37.9688 20.8333 38.5417 20.8333H46.875C47.4479 20.8333 47.9167 20.3646 47.9167 19.7917V18.75Z" fill="#171F46"/>
<path d="M37.5 40.6252V41.6668H47.9167V40.6252C47.9167 40.0522 47.4479 39.5835 46.875 39.5835H38.5417C37.9688 39.5835 37.5 40.0522 37.5 40.6252Z" fill="#171F46"/>
<path d="M14.5834 30.2082C14.5834 35.9478 19.2605 40.6248 25 40.6248C30.7396 40.6248 35.4167 35.9478 35.4167 30.2082C35.4167 24.4686 30.7396 19.7915 25 19.7915C19.2605 19.7915 14.5834 24.4686 14.5834 30.2082ZM26.0417 24.5623V25.1873C26.7292 25.4269 27.3334 25.9061 27.7084 26.5623C27.9896 27.0623 27.823 27.6978 27.323 27.979C26.823 28.2707 26.1875 28.104 25.9063 27.604C25.7188 27.2811 25.375 27.0832 25 27.0832C24.4271 27.0832 23.9584 27.5519 23.9584 28.1248C23.9584 28.6978 24.4271 29.1665 25 29.1665C26.7188 29.1665 28.125 30.5728 28.125 32.2915C28.125 33.6457 27.25 34.8019 26.0417 35.229V35.854C26.0417 36.4269 25.573 36.8957 25 36.8957C24.4271 36.8957 23.9584 36.4269 23.9584 35.854V35.229C23.2709 34.9894 22.6667 34.5103 22.2917 33.854C22.0105 33.3644 22.1771 32.7186 22.6771 32.4373C23.1667 32.1457 23.8021 32.3123 24.0938 32.8123C24.2813 33.1353 24.625 33.3332 25 33.3332C25.573 33.3332 26.0417 32.8644 26.0417 32.2915C26.0417 31.7186 25.573 31.2498 25 31.2498C23.2813 31.2498 21.875 29.8436 21.875 28.1248C21.875 26.7707 22.75 25.6144 23.9584 25.1873V24.5623C23.9584 23.9894 24.4271 23.5207 25 23.5207C25.573 23.5207 26.0417 23.9894 26.0417 24.5623Z" fill="#171F46"/>
<path d="M1.04155 16.6667H48.9582C49.427 16.6667 49.8332 16.3542 49.9582 15.9062C50.0832 15.4583 49.8957 14.9792 49.4999 14.7396L25.5416 0.15625C25.2082 -0.0520833 24.7916 -0.0520833 24.4582 0.15625L0.499885 14.7396C0.104052 14.9792 -0.0834482 15.4583 0.0415518 15.9062C0.166552 16.3542 0.572802 16.6667 1.04155 16.6667Z" fill="#171F46"/>
<path d="M48.9583 43.75H1.04167C0.46875 43.75 0 44.2187 0 44.7917V48.9583C0 49.5312 0.46875 50 1.04167 50H48.9583C49.5312 50 50 49.5312 50 48.9583V44.7917C50 44.2187 49.5312 43.75 48.9583 43.75Z" fill="#171F46"/>
</svg>
