<svg width="51" height="51" viewBox="0 0 51 51" fill="none" xmlns="http://www.w3.org/2000/svg">
<path fill-rule="evenodd" clip-rule="evenodd" d="M33.7566 5.21546C34.2587 4.71334 35.0747 4.71334 35.5768 5.21546L45.8777 15.5162C46.3798 16.0184 46.3798 16.8343 45.8777 17.3364L15.2526 47.9613C14.8929 48.321 14.4366 48.5648 13.9369 48.6662L7.12466 50.0277C3.52288 50.7471 0.345796 47.5702 1.06534 43.9684L2.42686 37.1562C2.52825 36.6589 2.77207 36.2002 3.13175 35.8406L33.7566 5.21546ZM34.6667 7.94818L4.95195 37.6603L3.59043 44.4724C3.23074 46.2733 4.81921 47.8618 6.62006 47.5021L13.4323 46.1405L43.1471 16.426L34.6667 7.94818Z" fill="#171F46"/>
<path fill-rule="evenodd" clip-rule="evenodd" d="M36.33 2.6398C39.6783 -0.706104 45.105 -0.706104 48.4533 2.6398C51.7992 5.9881 51.7992 11.4147 48.4533 14.7606L45.8775 17.3364C45.3754 17.8385 44.5594 17.8385 44.0549 17.3364L33.7565 7.03561C33.2544 6.53349 33.2544 5.71755 33.7565 5.21542L36.33 2.6398ZM46.6308 4.46239C44.2892 2.12074 40.4942 2.12074 38.1525 4.46239L36.4868 6.12567L44.9676 14.6064L46.6309 12.9408C48.9726 10.5991 48.9725 6.80417 46.6308 4.46239Z" fill="#171F46"/>
</svg>
