<svg width="26" height="26" viewBox="0 0 26 26" fill="none" xmlns="http://www.w3.org/2000/svg">
<path d="M20.0501 0.450012H5.12012C3.79403 0.450012 2.52227 0.976796 1.58458 1.91448C0.646901 2.85216 0.120117 4.12393 0.120117 5.45001V20.38C0.120117 21.7061 0.646901 22.9779 1.58458 23.9155C2.52227 24.8532 3.79403 25.38 5.12012 25.38H20.0501C21.3762 25.38 22.648 24.8532 23.5857 23.9155C24.5233 22.9779 25.0501 21.7061 25.0501 20.38V5.45001C25.0501 4.12393 24.5233 2.85216 23.5857 1.91448C22.648 0.976796 21.3762 0.450012 20.0501 0.450012ZM23.0501 20.38C23.0501 21.1757 22.734 21.9387 22.1714 22.5013C21.6088 23.0639 20.8458 23.38 20.0501 23.38H5.12012C4.32447 23.38 3.56141 23.0639 2.9988 22.5013C2.43619 21.9387 2.12012 21.1757 2.12012 20.38V5.45001C2.12012 4.65436 2.43619 3.8913 2.9988 3.32869C3.56141 2.76608 4.32447 2.45001 5.12012 2.45001H20.0501C20.8458 2.45001 21.6088 2.76608 22.1714 3.32869C22.734 3.8913 23.0501 4.65436 23.0501 5.45001V20.38ZM12.5901 7.81001C11.579 7.80803 10.5901 8.10605 9.74843 8.66634C8.90678 9.22663 8.25027 10.024 7.86197 10.9576C7.47367 11.8911 7.37105 12.9189 7.56709 13.9108C7.76313 14.9027 8.24902 15.8141 8.96326 16.5298C9.67751 17.2454 10.588 17.7331 11.5795 17.9311C12.571 18.1291 13.599 18.0285 14.5333 17.642C15.4676 17.2555 16.2663 16.6006 16.8282 15.76C17.3902 14.9195 17.6901 13.9311 17.6901 12.92C17.6901 11.5665 17.1531 10.2683 16.197 9.31023C15.2408 8.3522 13.9436 7.81266 12.5901 7.81001ZM12.5901 16.02C11.9742 16.022 11.3715 15.841 10.8585 15.5001C10.3456 15.1591 9.94541 14.6735 9.70878 14.1048C9.47216 13.5361 9.40972 12.91 9.52941 12.3057C9.64909 11.7015 9.94549 11.1465 10.381 10.7109C10.8166 10.2754 11.3716 9.97898 11.9759 9.8593C12.5801 9.73962 13.2062 9.80205 13.7749 10.0387C14.3436 10.2753 14.8292 10.6755 15.1702 11.1884C15.5111 11.7014 15.6921 12.3041 15.6901 12.92C15.6848 13.7387 15.3559 14.5221 14.7751 15.0991C14.1943 15.6762 13.4088 16 12.5901 16V16.02ZM21.1601 5.12001C21.1601 5.38523 21.0548 5.63958 20.8672 5.82712C20.6797 6.01466 20.4253 6.12001 20.1601 6.12001H19.1601C18.8949 6.12001 18.6405 6.01466 18.453 5.82712C18.2655 5.63958 18.1601 5.38523 18.1601 5.12001C18.1601 4.8548 18.2655 4.60044 18.453 4.41291C18.6405 4.22537 18.8949 4.12001 19.1601 4.12001H20.1601C20.4253 4.12001 20.6797 4.22537 20.8672 4.41291C21.0548 4.60044 21.1601 4.8548 21.1601 5.12001Z" fill="black"/>
</svg>
