<svg width="50" height="50" viewBox="0 0 50 50" fill="none" xmlns="http://www.w3.org/2000/svg">
<path d="M42.7646 7H6.89812C3.09601 7 0 10.096 0 13.8981V15.5819C0 16.3423 0.618162 16.9605 1.37856 16.9605H48.2789C49.0393 16.9605 49.6574 16.3423 49.6574 15.5819V13.8981C49.6626 10.096 46.5666 7 42.7646 7Z" fill="#171F46"/>
<path d="M48.2842 19.7203H1.38394C0.897677 19.7203 0.437281 19.622 0.00537109 19.4668V36.6459C0.00537109 40.448 3.10138 43.544 6.90349 43.544H42.77C46.5721 43.544 49.6681 40.448 49.6681 36.6459L49.6629 19.4668C49.231 19.6194 48.7679 19.7203 48.2842 19.7203ZM20.1799 31.1368H8.2794C7.51901 31.1368 6.90084 30.5186 6.90084 29.7582C6.90084 28.9978 7.519 28.3797 8.2794 28.3797H20.1799C20.9403 28.3797 21.5585 28.9978 21.5585 29.7582C21.5585 30.5186 20.9403 31.1368 20.1799 31.1368Z" fill="#171F46"/>
</svg>
