<svg width="68" height="50" viewBox="0 0 68 50" fill="none" xmlns="http://www.w3.org/2000/svg">
<path d="M63.4011 25.3239L63.1811 25.694C62.5211 26.8141 61.7911 27.9244 61.0311 29.0055C59.6186 31.0137 58.0649 32.924 56.3811 34.7229C53.879 37.4373 51.0054 39.8035 47.8411 41.7551C45.6133 43.1193 43.1997 44.1717 40.6711 44.8816C38.5007 45.478 36.2562 45.7795 34.0011 45.7777C31.7418 45.7734 29.4939 45.4653 27.3211 44.8622C24.7943 44.1476 22.3814 43.0954 20.1511 41.7356C16.9881 39.7863 14.1175 37.4198 11.6211 34.7034C9.94909 32.9093 8.40547 31.0055 7.00111 29.0055C6.00111 27.603 5.24111 26.4342 4.80111 25.694L4.58111 25.3239H0.00111294C-0.0104891 25.6625 0.0687867 25.9982 0.231113 26.2978C1.18599 28.0518 2.25136 29.7465 3.42111 31.3724C4.9437 33.5376 6.61414 35.6006 8.42111 37.5475C11.1847 40.5593 14.3652 43.1817 17.8711 45.3394C20.4369 46.9039 23.2134 48.1135 26.1211 48.9334C31.256 50.3556 36.6962 50.3556 41.8311 48.9334C44.7342 48.1097 47.5069 46.9003 50.0711 45.3394C53.5751 43.1792 56.7553 40.557 59.5211 37.5475C61.3317 35.6036 63.0023 33.5404 64.5211 31.3724C65.7081 29.7499 66.787 28.0549 67.7511 26.2978C67.9114 25.9967 67.997 25.6631 68.0011 25.3239H63.4011Z" fill="#47495B"/>
</svg>
