<svg width="50" height="50" viewBox="0 0 50 50" fill="none" xmlns="http://www.w3.org/2000/svg">
<path fill-rule="evenodd" clip-rule="evenodd" d="M25.5006 0C29.6335 0.00853043 33.5968 1.43746 36.5211 3.97328C39.4451 6.5091 41.0963 9.94688 41.1136 13.5345V20.8392H35.2189V13.5345C35.2189 10.521 33.3662 7.73565 30.3611 6.22983C27.3536 4.72199 23.6481 4.72199 20.6407 6.22983C17.6356 7.73554 15.7829 10.5209 15.7829 13.5345V20.8392H9.88821V13.5345C9.90541 9.94726 11.5566 6.50937 14.4806 3.97328C17.4046 1.43746 21.3672 0.00851733 25.5006 0ZM9.18987 50H41.8106C43.5724 49.9915 44.9975 48.7502 45 47.2211V25.0705C44.9975 23.5414 43.5675 22.3001 41.8057 22.298H9.18936C7.42758 22.3044 6.00245 23.5435 6 25.0705V47.2211C6.00246 48.7524 7.43003 49.9936 9.19427 50H9.18987ZM25.5006 28.9906C27.6284 28.9906 29.4984 30.2127 30.0832 31.9892C30.6655 33.7637 29.8227 35.6597 28.0167 36.6343C27.8398 36.7282 27.7317 36.8967 27.7341 37.078V41.3797C27.7341 42.4482 26.7365 43.312 25.5079 43.312C24.2769 43.312 23.2793 42.4482 23.2793 41.3797V37.078C23.2817 36.8967 23.1736 36.7282 22.9967 36.6343C21.1907 35.6597 20.3479 33.7637 20.9302 31.9892C21.515 30.2127 23.3849 28.9906 25.5128 28.9906H25.5006Z" fill="#171F46"/>
</svg>
