<svg width="65" height="68" viewBox="0 0 65 68" fill="none" xmlns="http://www.w3.org/2000/svg">
<path d="M60.3136 18.3951C59.6151 17.3261 58.1172 16.9924 56.961 17.6315C55.8079 18.2791 55.4418 19.6705 56.1374 20.7395C58.7303 24.7045 60.097 29.2658 60.097 33.9354C60.097 48.0472 47.7119 59.5294 32.4888 59.5294C29.8806 59.5294 27.3364 59.1759 24.8807 58.5227L27.3029 57.4423C28.517 56.9022 29.0295 55.5476 28.4437 54.422C27.8641 53.2964 26.3998 52.8214 25.1857 53.3643L17.5592 56.7636C16.9491 57.0379 16.4885 57.5328 16.2872 58.1324C16.0889 58.7347 16.1682 59.3824 16.5037 59.9282L20.7196 66.7324C21.1711 67.462 21.9917 67.8693 22.8397 67.8693C23.2516 67.8693 23.6695 67.7731 24.0539 67.5695C25.2223 66.9473 25.628 65.5616 24.9538 64.4813L24.0264 62.9824C26.7658 63.6697 29.5968 64.0515 32.4919 64.0515C50.4077 64.0515 64.981 50.5392 64.981 33.9326C64.978 28.4406 63.3673 23.064 60.3136 18.3951Z" fill="#171F46"/>
<path d="M32.4861 8.33823C35.0943 8.33823 37.6416 8.69173 40.0943 9.34499L37.6721 10.4253C36.4579 10.9655 35.9455 12.3201 36.5312 13.4457C36.9522 14.2545 37.8216 14.7267 38.7337 14.7267C39.0906 14.7267 39.4475 14.656 39.7892 14.5033L47.4157 11.104C48.0258 10.8297 48.4865 10.3348 48.6878 9.73529C48.8891 9.13575 48.8129 8.48527 48.4742 7.93947L44.2584 1.13526C43.5903 0.0521166 42.0986 -0.321165 40.9271 0.301019C39.7587 0.923189 39.353 2.30889 40.0272 3.38921L40.9546 4.88806C38.2152 4.20084 35.3843 3.81903 32.4891 3.81903C14.5733 3.81903 0 17.3313 0 33.9379C0 39.4327 1.61376 44.8091 4.66743 49.478C5.12502 50.1794 5.93343 50.5668 6.7571 50.5668C7.19028 50.5668 7.62348 50.4593 8.02005 50.2387C9.1732 49.5911 9.53924 48.1997 8.84372 47.1307C6.25073 43.1658 4.88407 38.6045 4.88407 33.9348C4.88102 19.8202 17.2661 8.33823 32.4861 8.33823Z" fill="#171F46"/>
<path d="M42.815 32.5143V26.7912C42.2987 14.1148 22.6833 14.1078 22.1631 26.7912V32.5143C20.4483 33.0818 19.2129 34.5861 19.2129 36.3638V45.9368C19.2129 48.2 21.197 50.0393 23.6383 50.0393H41.3398C43.7811 50.0393 45.7652 48.2 45.7652 45.9368V36.3638C45.7652 34.5826 44.5298 33.0784 42.815 32.5143ZM32.4886 19.9533C36.5563 19.9533 39.8642 23.02 39.8642 26.7909V32.2609H25.1129V26.7909C25.1129 23.02 28.4209 19.9533 32.4886 19.9533ZM42.815 45.9364C42.815 46.692 42.1548 47.304 41.3398 47.304H23.6383C22.8233 47.304 22.1631 46.692 22.1631 45.9364V36.3634C22.1631 35.6079 22.8233 34.9959 23.6383 34.9959H41.3398C42.1548 34.9959 42.815 35.6079 42.815 36.3634V45.9364Z" fill="#171F46"/>
<path d="M33.9635 39.7827H31.0132C29.0734 39.8135 29.0734 42.4869 31.0132 42.5177H33.9635C35.9033 42.487 35.9033 39.8135 33.9635 39.7827Z" fill="#171F46"/>
</svg>
