<svg width="28" height="28" viewBox="0 0 28 28" fill="none" xmlns="http://www.w3.org/2000/svg">
<path d="M23.2275 0H4.77246C2.14111 0 0 2.14062 0 4.77246V23.2275C0 25.8594 2.14111 28 4.77246 28H23.2275C25.8589 28 28 25.8594 28 23.2275V4.77246C28 2.14062 25.8589 0 23.2275 0ZM26 23.2275C26 24.7559 24.7563 26 23.2275 26H4.77246C3.24365 26 2 24.7559 2 23.2275V17.4578C5.46094 12.0951 7.83618 10.6793 8.91016 11.1621C9.67481 11.5059 10.1929 12.3477 10.8491 13.4131C12.3355 15.8281 14.25 18.9395 20.6558 18.9385C22.1644 18.9385 23.9404 18.7523 26 18.3579V23.2275ZM26 16.3191C16.2378 18.2975 14.2715 15.1571 12.5522 12.3652C11.7822 11.1142 11.0552 9.93261 9.73047 9.33789C7.60657 8.38147 5.01221 9.93957 2 13.9503V4.77246C2 3.24414 3.24365 2 4.77246 2H23.2275C24.7563 2 26 3.24414 26 4.77246V16.3191Z" fill="black"/>
<path d="M19.5127 5.71387C17.4639 5.71387 15.7974 7.37989 15.7974 9.42871C15.7974 11.4775 17.4639 13.1445 19.5127 13.1445C21.5615 13.1445 23.228 11.4775 23.228 9.42871C23.228 7.37988 21.5615 5.71387 19.5127 5.71387ZM19.5127 11.1445C18.5669 11.1445 17.7974 10.375 17.7974 9.42871C17.7974 8.4834 18.5669 7.71387 19.5127 7.71387C20.4585 7.71387 21.228 8.4834 21.228 9.42871C21.228 10.375 20.4585 11.1445 19.5127 11.1445Z" fill="black"/>
</svg>
