<svg width="78" height="51" viewBox="0 0 78 51" fill="none" xmlns="http://www.w3.org/2000/svg">
<path d="M77.594 24.7954C71.562 10.3212 56.052 0.597046 39 0.597046C21.948 0.597046 6.43798 10.3212 0.406978 24.7954C0.191978 25.3117 0.191978 25.8824 0.406978 26.3996C6.43798 40.8729 21.948 50.597 39 50.597C56.052 50.597 71.562 40.8729 77.594 26.3987C77.809 25.8824 77.809 25.3117 77.594 24.7954ZM39 46.0603C24.332 46.0603 10.962 37.8722 5.43198 25.5966C10.962 13.3218 24.332 5.13384 39 5.13384C53.668 5.13384 67.038 13.3218 72.568 25.5975C67.038 37.8722 53.668 46.0603 39 46.0603Z" fill="#47495B"/>
<path d="M39 9.63879C29.351 9.63879 21.528 16.7371 21.528 25.4922C21.528 34.2473 29.351 41.3455 39 41.3455C48.649 41.3455 56.472 34.2482 56.472 25.4922C56.472 16.7362 48.649 9.63879 39 9.63879ZM31.792 20.2667C30.002 20.2667 28.551 18.9501 28.551 17.3259C28.551 15.7018 30.002 14.3852 31.792 14.3852C33.582 14.3852 35.033 15.7018 35.033 17.3259C35.033 18.9501 33.582 20.2667 31.792 20.2667ZM36.458 22.9507C35.611 22.9507 34.925 22.3282 34.925 21.5597C34.925 20.7911 35.611 20.1687 36.458 20.1687C37.305 20.1687 37.991 20.7911 37.991 21.5597C37.991 22.3282 37.305 22.9507 36.458 22.9507Z" fill="#47495B"/>
</svg>
